<svg id="Layer_1" data-name="Layer 1" xmlns="http://www.w3.org/2000/svg" viewBox="0 0 2000 2000"><defs><style>.cls-1{fill:none;}</style></defs><title>logo</title><path class="cls-1" d="M0,1000C0,447.72,447.72,0,1000,0H0Z"/><path class="cls-1" d="M552.85,336.51A805.18,805.18,0,0,0,336.51,552.85a799.42,799.42,0,0,0-73.72,135.82C221.12,787.16,200,891.91,200,1000h800V200c-108.09,0-212.84,21.12-311.33,62.79A799.42,799.42,0,0,0,552.85,336.51Z"/><path d="M0,1000H200c0-108.09,21.12-212.84,62.79-311.33a799.42,799.42,0,0,1,73.72-135.82A805.18,805.18,0,0,1,552.85,336.51a799.42,799.42,0,0,1,135.82-73.72C787.16,221.12,891.91,200,1000,200V0C447.72,0,0,447.72,0,1000Z"/><path class="cls-1" d="M2000,1000c0,552.28-447.72,1000-1000,1000H2000Z"/><path class="cls-1" d="M1447.15,1663.49a805.18,805.18,0,0,0,216.34-216.34,799.42,799.42,0,0,0,73.72-135.82c41.67-98.49,62.79-203.24,62.79-311.33H1000v800c108.09,0,212.84-21.12,311.33-62.79A799.42,799.42,0,0,0,1447.15,1663.49Z"/><path d="M2000,1000H1800c0,108.09-21.12,212.84-62.79,311.33a799.42,799.42,0,0,1-73.72,135.82,805.18,805.18,0,0,1-216.34,216.34,799.42,799.42,0,0,1-135.82,73.72C1212.84,1778.88,1108.09,1800,1000,1800v200C1552.28,2000,2000,1552.28,2000,1000Z"/><path class="cls-1" d="M1000,250c414.21,0,750,335.79,750,750V250Z"/><path class="cls-1" d="M1497.62,664.64A602.16,602.16,0,0,0,1233.5,447.09,596,596,0,0,0,1000,400v600h600a596.54,596.54,0,0,0-102.38-335.36Z"/><path d="M1000,250V400a596.54,596.54,0,0,1,335.36,102.38A602.16,602.16,0,0,1,1552.91,766.5,596,596,0,0,1,1600,1000h150C1750,585.79,1414.21,250,1000,250Z"/><path class="cls-1" d="M1000,1750c-414.21,0-750-335.79-750-750v750Z"/><path class="cls-1" d="M502.38,1335.36A602.16,602.16,0,0,0,766.5,1552.91,596,596,0,0,0,1000,1600V1000H400a596.54,596.54,0,0,0,102.38,335.36Z"/><path d="M1000,1750V1600a596.54,596.54,0,0,1-335.36-102.38A602.16,602.16,0,0,1,447.09,1233.5,596,596,0,0,1,400,1000H250C250,1414.21,585.79,1750,1000,1750Z"/><path class="cls-1" d="M499.94,1000.1c0-276.15,223.85-500,500-500h-500Z"/><path class="cls-1" d="M776.36,668.35A402.59,402.59,0,0,0,668.19,776.52a397.69,397.69,0,0,0-68.25,223.58h400v-400a397.69,397.69,0,0,0-223.58,68.25Z"/><path d="M499.94,1000.1h100a397.69,397.69,0,0,1,68.25-223.58,401.41,401.41,0,0,1,176.08-145A397.41,397.41,0,0,1,999.94,600.1v-100C723.79,500.1,499.94,724,499.94,1000.1Z"/><path class="cls-1" d="M1499.94,1000.1c0,276.14-223.86,500-500,500h500Z"/><path class="cls-1" d="M1223.51,1331.84a401.41,401.41,0,0,0,145-176.08,397.4,397.4,0,0,0,31.4-155.66h-400v400a397.78,397.78,0,0,0,223.57-68.26Z"/><path d="M1499.94,1000.1h-100a397.78,397.78,0,0,1-68.26,223.57,402.59,402.59,0,0,1-108.17,108.17,397.78,397.78,0,0,1-223.57,68.26v100C1276.08,1500.1,1499.94,1276.24,1499.94,1000.1Z"/><path class="cls-1" d="M999.94,1250.1c-138.08,0-250-111.93-250-250v250Z"/><path class="cls-1" d="M834.06,1111.88a200.75,200.75,0,0,0,88,72.52,198.64,198.64,0,0,0,77.84,15.7v-200h-200a198.76,198.76,0,0,0,34.12,111.78Z"/><path d="M999.94,1250.1v-50A198.84,198.84,0,0,1,888.15,1166a201.14,201.14,0,0,1-54.09-54.09,198.76,198.76,0,0,1-34.12-111.78h-50C749.94,1138.17,861.86,1250.1,999.94,1250.1Z"/><path class="cls-1" d="M999.94,750.1c138.07,0,250,111.93,250,250v-250Z"/><path class="cls-1" d="M1165.81,888.31a200.75,200.75,0,0,0-88-72.52,198.8,198.8,0,0,0-77.83-15.69v200h200a198.84,198.84,0,0,0-34.13-111.79Z"/><path d="M999.94,750.1v50a198.76,198.76,0,0,1,111.78,34.12,201.52,201.52,0,0,1,54.09,54.09,198.84,198.84,0,0,1,34.13,111.79h50C1249.94,862,1138,750.1,999.94,750.1Z"/></svg>