<svg id="Layer_1" data-name="Layer 1" xmlns="http://www.w3.org/2000/svg" viewBox="0 0 1333.2868 1500.5207"><defs><style>.cls-1{fill:#1d6330;}.cls-2{fill:#32a852;}.cls-3{fill:#2d67b0;}.cls-4{fill:#1e5da9;}</style></defs><title>logo</title><path class="cls-1" d="M622,1607.6106V1142.9657l-250-250v714.6447a125,125,0,0,0,125,125h0A125,125,0,0,0,622,1607.6106Z" transform="translate(-372 -232.6105)"/><rect class="cls-2" x="288.6667" y="1170.6105" width="1500" height="250" rx="124.9999" transform="translate(-880.65 460.301) rotate(-30)"/><rect class="cls-3" x="914" y="-79.3895" width="250" height="1500" rx="124.9999" transform="translate(-433.2657 1002.4951) rotate(-60)"/><path class="cls-4" d="M622,1072.255V357.61a125,125,0,0,0-125-125h0a125,125,0,0,0-125,125V822.2553Z" transform="translate(-372 -232.6105)"/></svg>